<svg id="Calque_1" data-name="Calque 1" xmlns="http://www.w3.org/2000/svg" viewBox="0 0 339.19 172.26"><defs><style>.cls-1{fill:#1e1e1c;}.cls-2{fill:#e62647;}.cls-3{fill:#13100f;}</style></defs><polygon class="cls-1" points="13.89 159.88 10.99 151.9 10.96 151.82 9.7 151.82 13.32 161.79 13.35 161.87 14.42 161.87 18.09 151.82 16.83 151.82 13.89 159.88"/><polygon class="cls-1" points="20.46 161.87 26.08 161.87 26.08 160.8 21.65 160.8 21.65 157.2 25.63 157.2 25.63 156.13 21.65 156.13 21.65 152.88 26.08 152.88 26.08 151.82 20.46 151.82 20.46 161.87"/><polygon class="cls-1" points="35.26 160 30.16 151.82 28.72 151.82 28.72 161.87 29.91 161.87 29.91 153.65 35.03 161.87 36.44 161.87 36.44 151.82 35.26 151.82 35.26 160"/><polygon class="cls-1" points="38.15 152.88 41.18 152.88 41.18 161.87 42.37 161.87 42.37 152.88 45.41 152.88 45.41 151.82 38.15 151.82 38.15 152.88"/><polygon class="cls-1" points="47.34 161.87 52.96 161.87 52.96 160.8 48.53 160.8 48.53 157.2 52.51 157.2 52.51 156.13 48.53 156.13 48.53 152.88 52.96 152.88 52.96 151.82 47.34 151.82 47.34 161.87"/><path class="cls-1" d="M66,151.82h-.85l-4.37,10.05h1.29l1.12-2.57H68l1.12,2.57h1.3l-4.36-10Zm1.51,6.41H63.69l1.93-4.43Z"/><path class="cls-1" d="M78.18,158.36a2.46,2.46,0,0,1-2.44,2.44,2.39,2.39,0,0,1-1.73-.71,2.35,2.35,0,0,1-.71-1.73v-6.54H72.11v6.54a3.63,3.63,0,0,0,6.19,2.56,3.54,3.54,0,0,0,1.06-2.56v-6.54H78.18Z"/><polygon class="cls-1" points="81.08 152.88 84.12 152.88 84.12 161.87 85.3 161.87 85.3 152.88 88.34 152.88 88.34 151.82 81.08 151.82 81.08 152.88"/><path class="cls-1" d="M97.2,153.06a4.13,4.13,0,0,0-6.13,0,6.32,6.32,0,0,0,0,7.57,4.15,4.15,0,0,0,6.13,0,6.32,6.32,0,0,0,0-7.57Zm-3.07,7.74a2.92,2.92,0,0,1-2.21-1,5.16,5.16,0,0,1,0-5.91,2.93,2.93,0,0,1,4.43,0,5.16,5.16,0,0,1,0,5.91A2.92,2.92,0,0,1,94.13,160.8Z"/><rect class="cls-2" x="108.06" y="151.69" width="1.43" height="10.3"/><polygon class="cls-1" points="124.39 158.62 120.99 151.82 119.59 151.82 119.59 161.87 120.78 161.87 120.78 154.02 123.96 160.35 124.86 160.35 127.98 154.07 127.98 161.87 129.17 161.87 129.17 151.82 127.82 151.82 124.39 158.62"/><polygon class="cls-1" points="137.1 148.55 135.75 148.55 135.22 150.67 136.04 150.67 137.1 148.55"/><polygon class="cls-1" points="132.97 161.87 138.58 161.87 138.58 160.8 134.15 160.8 134.15 157.2 138.13 157.2 138.13 156.13 134.15 156.13 134.15 152.88 138.58 152.88 138.58 151.82 132.97 151.82 132.97 161.87"/><path class="cls-1" d="M147.58,159.46a2.78,2.78,0,0,1-.27.33,2.89,2.89,0,0,1-2.21,1,2.92,2.92,0,0,1-2.22-1,5.16,5.16,0,0,1,0-5.91,2.94,2.94,0,0,1,4.43,0,3.11,3.11,0,0,1,.23.28l.06.1,1-.61-.07-.11q-.18-.24-.39-.48a4.13,4.13,0,0,0-6.13,0,6.32,6.32,0,0,0,0,7.57,4.15,4.15,0,0,0,6.13,0,4.81,4.81,0,0,0,.44-.57l.07-.11-1-.59Z"/><path class="cls-1" d="M155.41,151.82h-.85l-4.37,10.05h1.29l1.12-2.57h4.78l1.12,2.57h1.3l-4.36-10Zm1.51,6.41h-3.86L155,153.8Z"/><polygon class="cls-1" points="168.49 160 163.39 151.82 161.96 151.82 161.96 161.87 163.14 161.87 163.14 153.65 168.27 161.87 169.68 161.87 169.68 151.82 168.49 151.82 168.49 160"/><rect class="cls-1" x="173.24" y="151.82" width="1.18" height="10.05"/><path class="cls-1" d="M182.1,151.7a4.06,4.06,0,0,0-3.06,1.36,6.32,6.32,0,0,0,0,7.57,4.19,4.19,0,0,0,3.08,1.35,2.15,2.15,0,0,0,.91,1.47,2.94,2.94,0,0,0,1.67.52H185v-1h-.29a1.45,1.45,0,0,1-.94-.37,1.39,1.39,0,0,1-.5-.82,4.19,4.19,0,0,0,1.87-1.19,5.42,5.42,0,0,0,1.26-3.79,5.35,5.35,0,0,0-1.27-3.78A4.06,4.06,0,0,0,182.1,151.7Zm3.14,5.14a4.28,4.28,0,0,1-.92,3,3,3,0,0,1-4.44,0,5.21,5.21,0,0,1,0-5.91,2.94,2.94,0,0,1,4.44,0A4.26,4.26,0,0,1,185.24,156.84Z"/><path class="cls-1" d="M195.59,158.36a2.35,2.35,0,0,1-.71,1.73,2.39,2.39,0,0,1-1.73.71,2.46,2.46,0,0,1-2.44-2.44v-6.54h-1.18v6.54a3.63,3.63,0,0,0,7.25,0v-6.54h-1.19Z"/><polygon class="cls-1" points="200.36 161.87 205.98 161.87 205.98 160.8 201.55 160.8 201.55 157.2 205.53 157.2 205.53 156.13 201.55 156.13 201.55 152.88 205.98 152.88 205.98 151.82 200.36 151.82 200.36 161.87"/><rect class="cls-2" x="215.11" y="151.69" width="1.43" height="10.3"/><path class="cls-1" d="M232.75,159.46a3.92,3.92,0,0,1-.27.33,3,3,0,0,1-4.44,0,5.21,5.21,0,0,1,0-5.91,3,3,0,0,1,4.44,0,3,3,0,0,1,.22.28l.07.1,1-.61-.08-.11a5.71,5.71,0,0,0-.38-.48,4.13,4.13,0,0,0-6.13,0,6.32,6.32,0,0,0,0,7.57,4.15,4.15,0,0,0,6.13,0,4.73,4.73,0,0,0,.43-.57l.07-.11-1-.59Z"/><path class="cls-1" d="M240.57,151.82h-.85l-4.37,10.05h1.29l1.12-2.57h4.78l1.09,2.49,0,.08H245l-4.36-10Zm1.52,6.41h-3.87l1.93-4.43Z"/><path class="cls-1" d="M253.89,160.06a3.42,3.42,0,0,0-1.23-2.9,2.65,2.65,0,0,0,1.47-2.42,2.94,2.94,0,0,0-2.93-2.92h-3.86v10.05h1.19v-4.2h2.1a1.88,1.88,0,0,1,1.59.57,3.28,3.28,0,0,1,.49,1.83,7.27,7.27,0,0,0,.26,1.75l0,.08h1.15l0-.15A11.56,11.56,0,0,1,253.89,160.06Zm-5.36-7.18H251a1.86,1.86,0,0,1,1.46.57,1.89,1.89,0,0,1,0,2.58,2.19,2.19,0,0,1-1.7.57h-2.2Z"/><path class="cls-1" d="M264,160.06a3.42,3.42,0,0,0-1.24-2.9,2.63,2.63,0,0,0,1.47-2.42,2.94,2.94,0,0,0-2.92-2.92h-3.86v10.05h1.18v-4.2h2.11a1.89,1.89,0,0,1,1.59.57,3.26,3.26,0,0,1,.49,1.83,6.71,6.71,0,0,0,.26,1.75l0,.08h1.15l0-.15A10.31,10.31,0,0,1,264,160.06Zm-5.37-7.18h2.44a1.86,1.86,0,0,1,1.46,3.15,2.15,2.15,0,0,1-1.69.57h-2.21Z"/><path class="cls-1" d="M271.47,151.7a4.09,4.09,0,0,0-3.07,1.36,6.32,6.32,0,0,0,0,7.57,4.15,4.15,0,0,0,6.13,0,6.32,6.32,0,0,0,0-7.57A4.09,4.09,0,0,0,271.47,151.7Zm3.14,5.14a4.24,4.24,0,0,1-.93,3,3,3,0,0,1-4.43,0,5.16,5.16,0,0,1,0-5.91,2.93,2.93,0,0,1,4.43,0A4.21,4.21,0,0,1,274.61,156.84Z"/><path class="cls-1" d="M284.62,157a5.31,5.31,0,0,0-2.48-.85,4,4,0,0,1-1.64-.6,1.38,1.38,0,0,1-.64-1.14,1.35,1.35,0,0,1,.52-1.08,2.49,2.49,0,0,1,1.57-.43,3.13,3.13,0,0,1,1.7.49,3.51,3.51,0,0,1,.48.46l.06.07,1.11-.41-.08-.13a3.23,3.23,0,0,0-.77-.85,4.11,4.11,0,0,0-2.5-.81,3.57,3.57,0,0,0-2.39.76,2.52,2.52,0,0,0,.12,3.92,4.49,4.49,0,0,0,2,.84,5.25,5.25,0,0,1,2.1.62,1.48,1.48,0,0,1,.69,1.22,1.45,1.45,0,0,1-.64,1.27,3.1,3.1,0,0,1-1.8.47,2.87,2.87,0,0,1-1.74-.52,1.74,1.74,0,0,1-.53-.56l-.05-.09-1.13.34.06.13a2.86,2.86,0,0,0,.84,1,3.92,3.92,0,0,0,2.55.85,4.08,4.08,0,0,0,2.61-.79,2.64,2.64,0,0,0-.06-4.21Z"/><path class="cls-1" d="M294.51,157a5.31,5.31,0,0,0-2.48-.85,4.09,4.09,0,0,1-1.64-.6,1.38,1.38,0,0,1-.64-1.14,1.35,1.35,0,0,1,.52-1.08,2.52,2.52,0,0,1,1.58-.43,3.09,3.09,0,0,1,1.69.49,4.29,4.29,0,0,1,.49.46l.05.07,1.12-.41-.09-.13a3.37,3.37,0,0,0-.76-.85,4.15,4.15,0,0,0-2.5-.81,3.58,3.58,0,0,0-2.4.76,2.52,2.52,0,0,0,.12,3.92,4.49,4.49,0,0,0,2,.84,5.19,5.19,0,0,1,2.1.62,1.5,1.5,0,0,1,.05,2.49,3.08,3.08,0,0,1-1.8.47,2.84,2.84,0,0,1-1.73-.52,1.9,1.9,0,0,1-.54-.56l-.05-.09-1.13.34.06.13a2.86,2.86,0,0,0,.84,1A3.92,3.92,0,0,0,292,162a4.06,4.06,0,0,0,2.61-.79,2.64,2.64,0,0,0-.06-4.21Z"/><polygon class="cls-1" points="298.92 161.87 304.54 161.87 304.54 160.8 300.1 160.8 300.1 157.2 304.08 157.2 304.08 156.13 300.1 156.13 300.1 152.88 304.54 152.88 304.54 151.82 298.92 151.82 298.92 161.87"/><path class="cls-1" d="M314,160.06a3.39,3.39,0,0,0-1.24-2.9,2.63,2.63,0,0,0,1.47-2.42,2.81,2.81,0,0,0-.85-2.06,2.84,2.84,0,0,0-2.07-.86H307.4v10.05h1.18v-4.2h2.11a1.88,1.88,0,0,1,1.59.57,3.28,3.28,0,0,1,.49,1.83,6.79,6.79,0,0,0,.26,1.75l0,.08h1.15l0-.15A10.31,10.31,0,0,1,314,160.06Zm-5.37-7.18H311a1.87,1.87,0,0,1,1.46,3.15,2.19,2.19,0,0,1-1.7.57h-2.21Z"/><rect class="cls-1" x="317.53" y="151.82" width="1.18" height="10.05"/><polygon class="cls-1" points="328.15 152.88 328.15 151.82 322.53 151.82 322.53 161.87 328.15 161.87 328.15 160.8 323.71 160.8 323.71 157.2 327.69 157.2 327.69 156.13 323.71 156.13 323.71 152.88 328.15 152.88"/><path class="cls-3" d="M84.72,141.77a19.15,19.15,0,0,1-14.12-5.55c-3.67-3.69-5.53-9.1-5.53-16.1s1.86-12.41,5.53-16.1a19.15,19.15,0,0,1,14.12-5.55A19.14,19.14,0,0,1,98.83,104c3.67,3.69,5.53,9.1,5.53,16.1s-1.86,12.41-5.53,16.1a19.14,19.14,0,0,1-14.11,5.55m0-36.14a11.26,11.26,0,0,0-8.6,3.44c-2.2,2.29-3.31,6-3.31,11.05s1.11,8.76,3.31,11a11.23,11.23,0,0,0,8.6,3.44,11.29,11.29,0,0,0,8.6-3.43c2.19-2.3,3.3-6,3.3-11.06s-1.11-8.76-3.3-11.05a11.29,11.29,0,0,0-8.6-3.44"/><path class="cls-3" d="M149.64,141.13H141.9V116.25c0-3.44-1-6-3-7.84a11.33,11.33,0,0,0-14.87,0c-2,1.84-3,4.4-3,7.84v24.88h-7.73v-42H120l.54,3.51a15.2,15.2,0,0,1,10.87-4.15,18.62,18.62,0,0,1,12.82,4.8c3.58,3.22,5.39,7.59,5.39,13Z"/><path class="cls-3" d="M196.35,141.13h-7.74V116.25c0-3.44-1-6-3-7.84a11.33,11.33,0,0,0-14.87,0c-2,1.84-3,4.4-3,7.84v24.88h-7.74v-42h6.81l.53,3.51a15.2,15.2,0,0,1,10.87-4.15,18.6,18.6,0,0,1,12.82,4.8c3.58,3.22,5.39,7.59,5.39,13Z"/><path class="cls-3" d="M223.42,141.77a19.18,19.18,0,0,1-14.12-5.55c-3.67-3.69-5.53-9.1-5.53-16.1s1.86-12.41,5.53-16.1a20.74,20.74,0,0,1,28.24,0c3.66,3.69,5.52,9.1,5.52,16.1,0,.91,0,1.8-.07,2.64l-.06.94H211.81c.34,3.26,1.35,5.77,3,7.47a12.5,12.5,0,0,0,17.21,0,4.66,4.66,0,0,1,.55-.57l.5-.45,6.82,3.29-.77,1a20.68,20.68,0,0,1-1.59,1.76,19.09,19.09,0,0,1-14.11,5.58M211.8,117.06h23.35c-.43-3.61-1.57-6.4-3.42-8.31-2-2.1-4.74-3.12-8.31-3.12s-6.3,1-8.32,3.12c-1.84,1.91-2.95,4.7-3.3,8.31"/><rect class="cls-3" x="277.15" y="99.11" width="7.74" height="42.01"/><path class="cls-3" d="M311.57,141.77a23.21,23.21,0,0,1-14.15-4.45,14.83,14.83,0,0,1-3.82-3.8l-.65-1,6.91-3.15.48.68a7.66,7.66,0,0,0,2.22,2l.12.09c2.09,1.77,5.09,2.66,8.89,2.66,3.33,0,5.94-.56,7.76-1.69a4.52,4.52,0,0,0,2.5-4,4.21,4.21,0,0,0-2.31-3.79,22.2,22.2,0,0,0-8.07-2.32c-5.17-.53-9.22-1.84-12.05-3.89a10.16,10.16,0,0,1-4.46-8.59c0-3.56,1.67-6.52,5-8.8s7.35-3.3,12.37-3.3A21.26,21.26,0,0,1,324.84,102a13.94,13.94,0,0,1,2.5,2.38l.8,1-7,3.2-.49-.44a11,11,0,0,0-1-.83,12.76,12.76,0,0,0-7.31-1.88A14.17,14.17,0,0,0,305,107c-1.63,1-2.42,2.13-2.42,3.53a3.53,3.53,0,0,0,1.92,3.24,20.42,20.42,0,0,0,7.2,2.09c5.45.53,9.83,1.93,12.94,4.15a10.87,10.87,0,0,1-.18,18.28c-3.27,2.29-7.61,3.44-12.91,3.44"/><path class="cls-3" d="M276.29,90.34A4.73,4.73,0,1,1,281,95.07a4.74,4.74,0,0,1-4.73-4.73"/><path class="cls-3" d="M259.46,92.66a13.31,13.31,0,0,1,1.31-2.51,6.89,6.89,0,0,1,.49-.61,7.26,7.26,0,0,1,1.16-1.06,4.08,4.08,0,0,1,.83-.47,3.62,3.62,0,0,1,.55-.2,3.66,3.66,0,0,1,.5-.12l.25,0a10.18,10.18,0,0,1,1.57-.1H267c.16,0,.29,0,.4,0h.08c2.92,0,5.31-2.18,5.8-6.55-2.22,0-4.88,0-6.18,0a20.3,20.3,0,0,0-5.85,1l-.33.11-.16.06a15,15,0,0,0-5,2.94,14.25,14.25,0,0,0-4.6,11.1v44.89h7.74V105.64h3.44c2.92,0,5.31-2.18,5.8-6.54l-9.24,0V96.24a11.3,11.3,0,0,1,.54-3.58"/><path class="cls-2" d="M176.74,11.5a26.48,26.48,0,0,1,5.65,6.6c5.3,0,12.22,0,13.37,0,2.92,0,5.31-2.18,5.8-6.55l-24.82-.05"/><path class="cls-2" d="M185.22,24.56a25.8,25.8,0,0,1,1,6.58h3.23c2.92,0,5.31-2.18,5.8-6.54l-10.06,0"/><path class="cls-1" d="M182.82,43.23a26.85,26.85,0,0,1-5.23,6.07,12.1,12.1,0,0,1,5.14,10.45c-.45,5.79-3.68,9.68-8.43,10-6.68.37-8.34.23-14.73.23-1.83,0-6.41,0-8.19,0V66.18c0-4.17,1.09-6.84,4.42-9.52a69.86,69.86,0,0,1,8.81-5.16c2.78-1.47,5.4-2.85,7.27-4.1h0l.21-.15c.54-.36,1.06-.74,1.55-1.12l0,0c.38-.31.74-.62,1.1-.94a21.34,21.34,0,0,0,5-6.78A18.42,18.42,0,0,0,181,29.09c-.87-7.95-5.84-14.15-13-16.19-3.15-.91-5.14-1.38-12.59-1.38-2.51,0-3.75,0-4.74,0s-1.73,0-3.31,0h-4V51.12a26.6,26.6,0,0,1,8-7.09V19.53h4.07c6.67,0,7.92.36,10.39,1.07,3.95,1.13,6.72,4.72,7.23,9.38s-1.09,7.75-5.52,10.74c-1.52,1-4,2.34-6.61,3.72A81.6,81.6,0,0,0,151.4,50a21.55,21.55,0,0,0-7.77,12.37,23.17,23.17,0,0,0-.32,4V77.86l4.07,0,16.26,0c3.5,0,7,.12,11.23-.18,8.71-.63,15.08-7.59,15.84-17.3a20,20,0,0,0-7.89-17.15"/><path class="cls-1" d="M49.47,106.41a27.12,27.12,0,0,1-5.23,6.08,12.07,12.07,0,0,1,5.14,10.45c-.45,5.79-3.68,9.67-8.43,9.94-6.68.38-8.34.23-14.73.23-1.83,0-6.41,0-8.19,0v-3.75c0-4.17,1.09-6.84,4.42-9.51a67.51,67.51,0,0,1,8.81-5.16c2.78-1.47,5.4-2.86,7.27-4.11h0l.21-.15c.54-.37,1.06-.74,1.55-1.13l0,0c.38-.31.74-.62,1.1-.94a21.59,21.59,0,0,0,5-6.77,18.56,18.56,0,0,0,1.17-9.28c-.87-8-5.84-14.16-13-16.2-3.16-.9-5.15-1.37-12.59-1.37H14l-4,0v39.6a26.5,26.5,0,0,1,8-7.1V82.72H22c6.66,0,7.91.35,10.39,1.06,3.94,1.13,6.71,4.72,7.22,9.38s-1.09,7.75-5.52,10.74c-1.51,1-4,2.34-6.61,3.73a80.61,80.61,0,0,0-9.46,5.52,21.56,21.56,0,0,0-7.78,12.37,23.29,23.29,0,0,0-.32,4V141l4.07,0,16.27,0c3.49,0,7,.12,11.22-.18,8.72-.63,15.08-7.58,15.84-17.3a20,20,0,0,0-7.89-17.15"/></svg>