<svg id="Calque_1" data-name="Calque 1" xmlns="http://www.w3.org/2000/svg" xmlns:xlink="http://www.w3.org/1999/xlink" viewBox="0 0 73 89"><defs><style>.cls-1{fill:none;}.cls-2{clip-path:url(#clip-path);}.cls-3{fill:#e62246;}.cls-4{fill:#1d1d1b;}</style><clipPath id="clip-path"><rect class="cls-1" x="-56" y="-49.25" width="184.25" height="184.25"/></clipPath></defs><g class="cls-2"><path class="cls-3" d="M44,9.68a26.24,26.24,0,0,1,5.64,6.6H63c2.92,0,5.31-2.18,5.8-6.55-2.19,0-21.13,0-24.82-.05"/><path class="cls-3" d="M52.46,22.74a25.36,25.36,0,0,1,1,6.59h3.24c2.92,0,5.31-2.18,5.8-6.54l-10.06,0"/><path class="cls-4" d="M50.05,41.41a26.6,26.6,0,0,1-5.23,6.07A12.07,12.07,0,0,1,50,57.93c-.45,5.8-3.67,9.68-8.43,9.95-6.67.37-8.34.23-14.72.23-1.83,0-6.42,0-8.19,0V64.36c0-4.17,1.08-6.84,4.42-9.51a67.51,67.51,0,0,1,8.81-5.16c2.77-1.47,5.39-2.86,7.26-4.11h0c.08,0,.14-.11.22-.15.54-.37,1.05-.75,1.54-1.13l0,0c.39-.31.75-.62,1.1-.94a21.29,21.29,0,0,0,5-6.77,18.45,18.45,0,0,0,1.18-9.28c-.87-8-5.85-14.16-13-16.2-3.16-.9-5.15-1.37-12.59-1.37h-8l-4,0v39.6a26.38,26.38,0,0,1,8-7.1V17.72h4.07c6.67,0,7.91.35,10.39,1.06,4,1.13,6.72,4.72,7.23,9.38s-1.09,7.75-5.52,10.74c-1.52,1-4,2.34-6.62,3.73a81.44,81.44,0,0,0-9.46,5.52,21.56,21.56,0,0,0-7.78,12.37,23.22,23.22,0,0,0-.31,4V76l4.07,0,16.26,0c3.5,0,7,.12,11.23-.18,8.71-.63,15.07-7.58,15.83-17.3a20,20,0,0,0-7.89-17.15"/></g></svg>